<?xml version="1.0" encoding="utf-8"?>
<!-- Generator: Adobe Illustrator 20.1.0, SVG Export Plug-In . SVG Version: 6.00 Build 0)  -->
<svg version="1.1" id="グループ_1" xmlns="http://www.w3.org/2000/svg" xmlns:xlink="http://www.w3.org/1999/xlink" x="0px"
	 y="0px" width="435px" height="90px" viewBox="0 0 435 90" enable-background="new 0 0 435 90" xml:space="preserve">
<linearGradient id="角丸長方形_1_" gradientUnits="userSpaceOnUse" x1="217.5" y1="840" x2="217.5" y2="754" gradientTransform="matrix(1 0 0 1 0 -752)">
	<stop  offset="0" style="stop-color:#45AF7B"/>
	<stop  offset="1" style="stop-color:#1D6F39"/>
</linearGradient>
<path id="角丸長方形" fill="#FFFFFF" stroke="url(#角丸長方形_1_)" stroke-width="4" stroke-linejoin="round" d="M45,2
	h345c23.748,0,43,19.252,43,43l0,0c0,23.748-19.252,43-43,43H45C21.252,88,2,68.748,2,45l0,0C2,21.252,21.252,2,45,2z"/>
<g>
	<path d="M166.803,41.469c1.191,0.183,1.923,0.229,3.664,0.229h3.435c1.19,0,2.427-0.046,3.48-0.183
		c-0.137,1.374-0.183,2.519-0.183,4.946v9.57c0.916,1.557,1.419,2.152,2.61,2.931c2.106,1.374,4.534,1.74,11.402,1.74
		c7.83,0,13.646-0.321,18.362-1.008c-0.87,2.473-1.007,2.931-1.374,5.403c-1.786,0.046-1.786,0.046-5.083,0.184
		c-1.374,0.046-8.105,0.137-10.44,0.137c-5.586,0-9.433-0.274-11.448-0.824c-2.839-0.778-4.259-1.785-6.411-4.396
		c-1.923,1.832-3.343,3.022-5.312,4.396c-0.321,0.229-1.099,0.824-1.511,1.191l-2.198-5.221c2.015-0.87,4.351-2.473,6.594-4.533
		v-9.846h-2.519c-1.19,0-1.923,0.046-3.068,0.229V41.469z M170.787,24.801c3.389,3.022,4.122,3.801,7.922,8.243l-3.801,3.709
		c-2.793-3.709-4.396-5.541-7.785-8.563L170.787,24.801z M184.708,36.066c-1.557,0-2.793,0.092-4.121,0.229v-4.854
		c1.282,0.138,2.656,0.229,4.167,0.229h1.786c-0.961-2.427-1.603-3.618-3.251-5.907l4.396-2.061
		c1.374,1.923,2.381,3.709,3.389,5.999l-3.984,1.969h7.372c1.648-2.702,2.793-5.174,3.709-7.922l4.945,1.648
		c-0.549,0.961-0.549,0.961-1.603,3.022c-0.641,1.19-1.145,2.106-1.832,3.251h2.656c1.648,0,2.748-0.046,4.03-0.229v4.854
		c-1.511-0.137-2.885-0.229-4.396-0.229h-6.548c0,2.519-0.046,3.526-0.229,5.22h8.7c1.694,0,2.885-0.046,4.122-0.229v4.946
		c-1.511-0.138-2.931-0.23-4.534-0.23h-7.418c1.007,1.787,2.198,3.207,3.846,4.535c2.29,1.831,4.259,2.793,8.426,4.075
		c-1.145,1.648-1.832,3.067-2.29,4.854c-4.259-1.511-6.136-2.564-8.655-4.762c-1.877-1.604-3.114-3.114-4.304-5.129
		c-1.145,2.381-2.29,3.893-4.213,5.541c-2.015,1.785-3.663,2.839-6.64,4.213c-0.824-1.786-1.832-3.16-3.206-4.351
		c3.251-1.236,5.129-2.244,6.686-3.617c1.603-1.374,2.793-3.16,3.618-5.359h-6.228c-1.511,0-3.022,0.092-4.259,0.23v-4.946
		c1.282,0.138,2.702,0.229,4.259,0.229h7.189c0.183-1.603,0.183-2.106,0.229-5.22H184.708z"/>
	<path d="M236.72,61.069c0,1.969,0.046,3.48,0.229,5.312h-5.266c0.183-1.786,0.274-3.113,0.274-5.357V47.377
		c0-1.604,0-1.741,0.138-5.084c-1.008,1.832-1.512,2.61-3.389,4.946c-0.642-2.199-1.145-3.527-2.106-5.45
		c3.022-3.297,5.175-6.915,6.96-11.769c0.962-2.656,1.42-4.259,1.694-6.319l5.037,1.74c-0.137,0.458-0.458,1.374-0.916,2.748
		c-0.915,2.839-1.465,4.167-2.655,6.731V61.069z M239.146,32.128c1.145,0.183,2.198,0.229,3.801,0.229h22.3
		c1.832,0,3.114-0.092,4.305-0.275v4.717c-1.236-0.138-2.564-0.229-4.305-0.229h-22.3c-1.42,0-2.656,0.045-3.801,0.229V32.128z
		 M246.244,66.426h-4.945c0.138-1.19,0.229-2.564,0.229-4.259v-6.456c0-1.466-0.046-2.84-0.183-3.938
		c0.961,0.092,2.197,0.138,3.755,0.138h17.354c1.786,0,2.885-0.046,3.893-0.138c-0.138,1.145-0.184,2.244-0.184,3.893v6.41
		c0,1.74,0.046,2.931,0.229,4.305h-5.037v-2.106h-15.111V66.426z M266.163,43.163c-1.007-0.137-2.061-0.183-3.571-0.183h-17.538
		c-1.557,0-2.198,0.046-3.251,0.183v-4.35c0.961,0.137,1.648,0.183,3.251,0.183h17.492c1.511,0,2.519-0.046,3.617-0.183V43.163z
		 M266.163,49.62c-1.145-0.137-2.015-0.183-3.525-0.183h-17.584c-1.603,0-2.336,0.046-3.251,0.183v-4.35
		c0.961,0.137,1.694,0.183,3.251,0.183h17.538c1.511,0,2.519-0.046,3.571-0.183V49.62z M266.163,30.067
		c-1.236-0.138-2.564-0.183-4.487-0.183h-15.432c-1.832,0-3.022,0.045-4.121,0.183v-4.396c1.328,0.183,2.61,0.274,4.533,0.274
		h14.653c2.198,0,3.617-0.091,4.854-0.274V30.067z M261.355,59.969v-3.846h-15.111v3.846H261.355z"/>
</g>
</svg>
