<?xml version="1.0" encoding="utf-8"?>
<!-- Generator: Adobe Illustrator 20.1.0, SVG Export Plug-In . SVG Version: 6.00 Build 0)  -->
<svg version="1.1" id="グループ_1" xmlns="http://www.w3.org/2000/svg" xmlns:xlink="http://www.w3.org/1999/xlink" x="0px"
	 y="0px" width="435px" height="90px" viewBox="0 0 435 90" enable-background="new 0 0 435 90" xml:space="preserve">
<linearGradient id="角丸長方形_1_" gradientUnits="userSpaceOnUse" x1="217.5" y1="840" x2="217.5" y2="754" gradientTransform="matrix(1 0 0 1 0 -752)">
	<stop  offset="0" style="stop-color:#45AF7B"/>
	<stop  offset="1" style="stop-color:#1D6F39"/>
</linearGradient>
<path id="角丸長方形" fill="#FFFFFF" stroke="url(#角丸長方形_1_)" stroke-width="4" stroke-linejoin="round" d="M45,2
	h345c23.748,0,43,19.252,43,43l0,0c0,23.748-19.252,43-43,43H45C21.252,88,2,68.748,2,45l0,0C2,21.252,21.252,2,45,2z"/>
<g>
	<path d="M137.507,56.743c0,1.31-0.248,2.56-0.744,3.75c-0.497,1.19-1.181,2.231-2.053,3.125c-0.874,0.893-1.896,1.606-3.065,2.143
		c-1.171,0.535-2.431,0.804-3.78,0.804c-1.151,0-2.321-0.159-3.512-0.477s-2.262-0.863-3.214-1.637
		c-0.952-0.773-1.736-1.795-2.351-3.065c-0.616-1.27-0.922-2.877-0.922-4.821V33.231c0-1.389,0.238-2.679,0.714-3.869
		c0.476-1.19,1.15-2.222,2.023-3.095c0.873-0.872,1.914-1.557,3.125-2.053c1.21-0.496,2.549-0.744,4.018-0.744
		c1.389,0,2.679,0.249,3.869,0.744c1.19,0.497,2.222,1.19,3.095,2.083c0.872,0.893,1.557,1.964,2.053,3.214
		c0.496,1.25,0.744,2.61,0.744,4.077v2.381h-6.071v-2.023c0-1.19-0.337-2.222-1.012-3.095c-0.675-0.873-1.587-1.31-2.738-1.31
		c-1.509,0-2.51,0.467-3.006,1.399c-0.497,0.933-0.744,2.113-0.744,3.542v21.666c0,1.23,0.268,2.262,0.803,3.096
		c0.536,0.833,1.498,1.25,2.887,1.25c0.396,0,0.823-0.069,1.279-0.209c0.456-0.138,0.873-0.366,1.25-0.685
		c0.377-0.316,0.685-0.753,0.923-1.309c0.238-0.556,0.357-1.25,0.357-2.084v-2.083h6.071V56.743z"/>
	<path d="M148.638,33.827c0-1.706,0.297-3.214,0.893-4.524c0.595-1.309,1.378-2.39,2.351-3.244c0.972-0.853,2.063-1.498,3.274-1.935
		c1.21-0.436,2.43-0.655,3.661-0.655c1.229,0,2.45,0.219,3.661,0.655c1.21,0.437,2.301,1.082,3.273,1.935
		c0.972,0.854,1.756,1.935,2.351,3.244c0.595,1.31,0.893,2.818,0.893,4.524v22.38c0,1.747-0.298,3.265-0.893,4.554
		c-0.595,1.29-1.379,2.361-2.351,3.214c-0.973,0.854-2.063,1.499-3.273,1.935c-1.211,0.437-2.431,0.655-3.661,0.655
		c-1.23,0-2.451-0.219-3.661-0.655c-1.211-0.436-2.302-1.08-3.274-1.935c-0.973-0.853-1.756-1.924-2.351-3.214
		c-0.595-1.289-0.893-2.807-0.893-4.554V33.827z M154.709,56.206c0,1.469,0.406,2.551,1.22,3.244
		c0.812,0.695,1.775,1.042,2.887,1.042c1.11,0,2.073-0.347,2.887-1.042c0.813-0.693,1.22-1.775,1.22-3.244v-22.38
		c0-1.468-0.407-2.549-1.22-3.244c-0.814-0.694-1.776-1.042-2.887-1.042c-1.111,0-2.074,0.348-2.887,1.042
		c-0.814,0.695-1.22,1.776-1.22,3.244V56.206z"/>
	<path d="M180.66,23.827h5.833l9.167,25.535h0.119V23.827h6.071v42.38h-5.714l-9.286-25.476h-0.119v25.476h-6.071V23.827z"/>
	<path d="M217.86,29.541h-7.024v-5.714h20.119v5.714h-7.023v36.666h-6.071V29.541z"/>
	<path d="M243.633,23.827h5.061l9.463,42.38h-6.07l-1.787-9.106h-8.273l-1.785,9.106h-6.071L243.633,23.827z M246.193,36.029h-0.119
		l-2.977,15.356h6.07L246.193,36.029z"/>
	<path d="M286.966,56.743c0,1.31-0.249,2.56-0.744,3.75c-0.497,1.19-1.182,2.231-2.054,3.125c-0.873,0.893-1.896,1.606-3.065,2.143
		c-1.171,0.535-2.431,0.804-3.779,0.804c-1.151,0-2.321-0.159-3.512-0.477s-2.263-0.863-3.215-1.637s-1.736-1.795-2.351-3.065
		c-0.616-1.27-0.923-2.877-0.923-4.821V33.231c0-1.389,0.238-2.679,0.714-3.869c0.477-1.19,1.15-2.222,2.024-3.095
		c0.872-0.872,1.914-1.557,3.125-2.053c1.21-0.496,2.549-0.744,4.018-0.744c1.389,0,2.678,0.249,3.868,0.744
		c1.19,0.497,2.223,1.19,3.096,2.083c0.872,0.893,1.557,1.964,2.054,3.214c0.495,1.25,0.744,2.61,0.744,4.077v2.381h-6.071v-2.023
		c0-1.19-0.338-2.222-1.013-3.095c-0.675-0.873-1.587-1.31-2.737-1.31c-1.509,0-2.511,0.467-3.006,1.399
		c-0.497,0.933-0.744,2.113-0.744,3.542v21.666c0,1.23,0.268,2.262,0.804,3.096c0.535,0.833,1.497,1.25,2.887,1.25
		c0.396,0,0.823-0.069,1.279-0.209c0.456-0.138,0.873-0.366,1.25-0.685c0.377-0.316,0.685-0.753,0.923-1.309s0.357-1.25,0.357-2.084
		v-2.083h6.071V56.743z"/>
	<path d="M302.44,29.541h-7.023v-5.714h20.118v5.714h-7.023v36.666h-6.071V29.541z"/>
</g>
</svg>
