<?xml version="1.0" encoding="utf-8"?>
<!-- Generator: Adobe Illustrator 20.1.0, SVG Export Plug-In . SVG Version: 6.00 Build 0)  -->
<svg version="1.1" id="グループ_1" xmlns="http://www.w3.org/2000/svg" xmlns:xlink="http://www.w3.org/1999/xlink" x="0px"
	 y="0px" width="435px" height="90px" viewBox="0 0 435 90" enable-background="new 0 0 435 90" xml:space="preserve">
<linearGradient id="角丸長方形_1_" gradientUnits="userSpaceOnUse" x1="217.5" y1="-750.11" x2="217.5" y2="-664.11" gradientTransform="matrix(1 0 0 -1 0 -662.11)">
	<stop  offset="0" style="stop-color:#45AF7B"/>
	<stop  offset="1" style="stop-color:#1D6F39"/>
</linearGradient>
<path id="角丸長方形" fill="#FFFFFF" stroke="url(#角丸長方形_1_)" stroke-width="4" stroke-linejoin="round" d="M45,2
	h345c23.748,0,43,19.252,43,43l0,0c0,23.748-19.252,43-43,43H45C21.252,88,2,68.748,2,45l0,0C2,21.252,21.252,2,45,2z"/>
<g>
	<path d="M113.802,66.152h-5.371l-8.653-42.49h6.445l4.833,29.659h0.12l4.894-29.659h6.445L113.802,66.152z"/>
	<path d="M132.898,23.661h6.088v42.49h-6.088V23.661z"/>
	<path d="M151.458,23.661h18.143v5.729h-12.056v12.473h10.504v5.729h-10.504v12.473h12.056v6.087h-18.143V23.661z"/>
	<path d="M205.347,66.152h-5.729l-4.654-27.571h-0.12l-4.595,27.571h-5.729l-6.325-42.49h6.445l3.043,26.974h0.119l4.774-26.974
		h4.655l4.953,27.631h0.119l2.924-27.631h6.445L205.347,66.152z"/>
	<path d="M264.963,66.152h-5.729l-4.654-27.571h-0.12l-4.595,27.571h-5.729l-6.325-42.49h6.445l3.043,26.974h0.119l4.774-26.974
		h4.655l4.953,27.631h0.119l2.924-27.631h6.445L264.963,66.152z"/>
	<path d="M281.672,23.661h18.143v5.729h-12.056v12.473h10.504v5.729h-10.504v12.473h12.056v6.087h-18.143V23.661z"/>
	<path d="M310.316,23.661h8.893c1.948,0,3.61,0.298,4.982,0.895c1.373,0.597,2.496,1.393,3.372,2.387
		c0.875,0.995,1.501,2.139,1.88,3.431c0.378,1.293,0.566,2.636,0.566,4.028v1.552c0,1.154-0.089,2.129-0.269,2.924
		c-0.179,0.796-0.447,1.492-0.805,2.088c-0.358,0.597-0.797,1.125-1.313,1.582c-0.518,0.458-1.114,0.886-1.79,1.283
		c1.432,0.677,2.485,1.681,3.163,3.014c0.676,1.333,1.014,3.113,1.014,5.341v2.388c0,3.74-0.905,6.604-2.715,8.594
		c-1.811,1.989-4.705,2.983-8.683,2.983h-8.296V23.661z M316.403,41.087h2.746c2.028,0,3.391-0.507,4.088-1.522
		c0.695-1.015,1.044-2.496,1.044-4.446c0-1.91-0.388-3.342-1.164-4.297c-0.775-0.955-2.178-1.432-4.207-1.432h-2.507V41.087z
		 M316.403,60.065h2.626c1.233,0,2.198-0.18,2.895-0.537c0.695-0.358,1.224-0.855,1.582-1.492c0.357-0.636,0.576-1.393,0.656-2.268
		c0.079-0.875,0.119-1.829,0.119-2.864c0-1.074-0.06-2.009-0.179-2.806c-0.12-0.795-0.369-1.462-0.746-1.999
		c-0.379-0.537-0.905-0.944-1.582-1.223s-1.572-0.418-2.686-0.418h-2.686V60.065z"/>
</g>
</svg>
