<?xml version="1.0" encoding="utf-8"?>
<!-- Generator: Adobe Illustrator 20.1.0, SVG Export Plug-In . SVG Version: 6.00 Build 0)  -->
<svg version="1.1" id="グループ_1" xmlns="http://www.w3.org/2000/svg" xmlns:xlink="http://www.w3.org/1999/xlink" x="0px"
	 y="0px" width="435px" height="90px" viewBox="0 0 435 90" enable-background="new 0 0 435 90" xml:space="preserve">
<linearGradient id="角丸長方形_1_" gradientUnits="userSpaceOnUse" x1="217.5" y1="1.89" x2="217.5" y2="87.89" gradientTransform="matrix(1 0 0 -1 0 89.89)">
	<stop  offset="0" style="stop-color:#45AF7B"/>
	<stop  offset="1" style="stop-color:#1D6F39"/>
</linearGradient>
<path id="角丸長方形" fill="#FFFFFF" stroke="url(#角丸長方形_1_)" stroke-width="4" stroke-linejoin="round" d="M45,2
	h345c23.748,0,43,19.252,43,43l0,0c0,23.748-19.252,43-43,43H45C21.252,88,2,68.748,2,45l0,0C2,21.252,21.252,2,45,2z"/>
<g enable-background="new    ">
	<path d="M99.909,65.994h-5.4l-8.7-42.72h6.48l4.86,29.819h0.12l4.92-29.819h6.48L99.909,65.994z"/>
	<path d="M119.469,23.275h6.12v42.72h-6.12V23.275z"/>
	<path d="M138.488,23.275h18.24v5.76h-12.12v12.54h10.56v5.76h-10.56v12.54h12.12v6.12h-18.24V23.275z"/>
	<path d="M193.028,65.994h-5.76l-4.68-27.72h-0.12l-4.62,27.72h-5.76l-6.36-42.72h6.48l3.06,27.12h0.12l4.8-27.12h4.68l4.98,27.779
		h0.12l2.94-27.779h6.48L193.028,65.994z"/>
	<path d="M228.307,23.275h5.88l7.86,22.62h0.12l7.8-22.62h5.94v42.72h-6.12v-25.98h-0.12l-6.06,18.36h-3.061l-6-18.36h-0.12v25.98
		h-6.12V23.275z"/>
	<path d="M268.267,33.355c0-1.72,0.3-3.24,0.9-4.561c0.6-1.319,1.39-2.409,2.37-3.27c0.979-0.86,2.079-1.51,3.3-1.95
		c1.22-0.439,2.449-0.66,3.689-0.66s2.47,0.221,3.69,0.66c1.22,0.44,2.319,1.09,3.3,1.95c0.979,0.86,1.771,1.95,2.37,3.27
		c0.601,1.32,0.9,2.841,0.9,4.561v22.56c0,1.761-0.3,3.291-0.9,4.59c-0.6,1.301-1.391,2.381-2.37,3.24
		c-0.98,0.86-2.08,1.511-3.3,1.95c-1.221,0.439-2.45,0.66-3.69,0.66s-2.47-0.221-3.689-0.66c-1.221-0.439-2.32-1.09-3.3-1.95
		c-0.98-0.859-1.771-1.939-2.37-3.24c-0.601-1.299-0.9-2.829-0.9-4.59V33.355z M274.387,55.914c0,1.48,0.41,2.57,1.23,3.271
		c0.819,0.7,1.789,1.05,2.909,1.05s2.09-0.35,2.91-1.05c0.819-0.7,1.23-1.79,1.23-3.271v-22.56c0-1.479-0.411-2.57-1.23-3.271
		c-0.82-0.699-1.79-1.05-2.91-1.05s-2.09,0.351-2.909,1.05c-0.82,0.7-1.23,1.791-1.23,3.271V55.914z"/>
	<path d="M301.146,23.275h9.84c7.2,0,10.8,4.18,10.8,12.54c0,2.48-0.39,4.61-1.17,6.39c-0.78,1.78-2.15,3.21-4.109,4.29l6.6,19.5
		h-6.48l-5.699-18.24h-3.66v18.24h-6.12V23.275z M307.267,42.355h3.479c1.08,0,1.94-0.15,2.58-0.45s1.13-0.729,1.47-1.29
		c0.34-0.56,0.57-1.25,0.69-2.07c0.12-0.819,0.18-1.77,0.18-2.85s-0.06-2.03-0.18-2.851c-0.12-0.819-0.37-1.52-0.75-2.1
		c-0.381-0.579-0.91-1.01-1.59-1.29c-0.681-0.279-1.581-0.42-2.7-0.42h-3.18V42.355z"/>
	<path d="M333.666,23.275h18.24v5.76h-12.12v12.54h10.561v5.76h-10.561v12.54h12.12v6.12h-18.24V23.275z"/>
</g>
</svg>
